<svg width="25" height="26" viewBox="0 0 25 26" fill="none" xmlns="http://www.w3.org/2000/svg">
<path d="M8.07288 2.1665V5.4165H7.29163C7.02079 5.4165 6.76038 5.42734 6.51038 5.47067V2.1665C6.51038 1.72234 6.86454 1.354 7.29163 1.354C7.71871 1.354 8.07288 1.72234 8.07288 2.1665Z" fill="white"/>
<path d="M17.7084 5.4165H7.29171C7.02087 5.4165 6.76046 5.42734 6.51046 5.47067C3.82296 5.79567 2.08337 7.86484 2.08337 10.8332V18.4165C2.08337 21.6665 4.16671 23.8332 7.29171 23.8332H17.7084C20.8334 23.8332 22.9167 21.6665 22.9167 18.4165V10.8332C22.9167 7.58317 20.8334 5.4165 17.7084 5.4165ZM8.20837 17.3332C6.77087 17.3332 5.60421 16.1198 5.60421 14.6248C5.60421 13.1298 6.77087 11.9165 8.20837 11.9165C9.64587 11.9165 10.8125 13.1298 10.8125 14.6248C10.8125 16.1198 9.64587 17.3332 8.20837 17.3332ZM14.9792 17.604H14.4584C14.0313 17.604 13.6771 17.2357 13.6771 16.7915C13.6771 16.3473 14.0313 15.979 14.4584 15.979H14.9792C15.4063 15.979 15.7605 16.3473 15.7605 16.7915C15.7605 17.2357 15.4063 17.604 14.9792 17.604ZM18.625 17.604H18.1042C17.6771 17.604 17.323 17.2357 17.323 16.7915C17.323 16.3473 17.6771 15.979 18.1042 15.979H18.625C19.0521 15.979 19.4063 16.3473 19.4063 16.7915C19.4063 17.2357 19.0521 17.604 18.625 17.604ZM18.625 13.2707H14.4584C14.0313 13.2707 13.6771 12.9023 13.6771 12.4582C13.6771 12.014 14.0313 11.6457 14.4584 11.6457H18.625C19.0521 11.6457 19.4063 12.014 19.4063 12.4582C19.4063 12.9023 19.0521 13.2707 18.625 13.2707Z" fill="white"/>
</svg>
